<?xml version="1.0" encoding="UTF-8"?>
<!DOCTYPE svg PUBLIC "-//W3C//DTD SVG 1.1//EN" "http://www.w3.org/Graphics/SVG/1.1/DTD/svg11.dtd">
<svg xmlns="http://www.w3.org/2000/svg" version="1.1" width="1080px" height="1920px" style="shape-rendering:geometricPrecision; text-rendering:geometricPrecision; image-rendering:optimizeQuality; fill-rule:evenodd; clip-rule:evenodd" xmlns:xlink="http://www.w3.org/1999/xlink">
<g><path style="opacity:0.916" fill="#fefffe" d="M 467.5,550.5 C 495.189,550.113 522.856,550.613 550.5,552C 551.167,552.333 551.833,552.667 552.5,553C 551.167,553.667 551.167,554.333 552.5,555C 555.833,555.333 559.167,555.667 562.5,556C 562.833,557 563.167,558 563.5,559C 566.5,559.333 569.5,559.667 572.5,560C 572.833,561 573.167,562 573.5,563C 575.833,563.333 578.167,563.667 580.5,564C 580.833,565 581.167,566 581.5,567C 585.5,568.667 589.5,570.333 593.5,572C 593.833,573 594.167,574 594.5,575C 595.833,575.333 597.167,575.667 598.5,576C 601.361,578.162 604.028,580.496 606.5,583C 607.448,583.483 608.448,583.649 609.5,583.5C 609.406,586.541 610.906,588.207 614,588.5C 614.483,589.448 614.649,590.448 614.5,591.5C 615.833,591.5 617.167,591.5 618.5,591.5C 618.5,592.833 618.5,594.167 618.5,595.5C 619.833,595.5 621.167,595.5 622.5,595.5C 622.5,596.833 622.5,598.167 622.5,599.5C 623.833,599.5 625.167,599.5 626.5,599.5C 626.5,600.833 626.5,602.167 626.5,603.5C 629.388,603.22 630.888,604.553 631,607.5C 631.667,608.833 632.333,608.833 633,607.5C 633.667,608.833 634.333,610.167 635,611.5C 639.033,614.18 641.7,617.847 643,622.5C 644.011,623.337 645.178,623.67 646.5,623.5C 646.343,624.873 646.51,626.207 647,627.5C 648,627.833 649,628.167 650,628.5C 650.333,630.5 650.667,632.5 651,634.5C 652,634.833 653,635.167 654,635.5C 653.684,639.137 655.018,641.804 658,643.5C 658.333,646.167 658.667,648.833 659,651.5C 660,652.167 661,652.833 662,653.5C 662.667,688.5 662.667,723.5 662,758.5C 658.256,759.626 654.423,759.793 650.5,759C 650.957,758.586 651.291,758.086 651.5,757.5C 649.028,756.104 646.362,755.27 643.5,755C 643.957,754.586 644.291,754.086 644.5,753.5C 641.988,752.205 639.321,751.539 636.5,751.5C 636.5,750.5 636.5,749.5 636.5,748.5C 633.833,748.167 631.167,747.833 628.5,747.5C 628.5,746.5 628.5,745.5 628.5,744.5C 625.833,744.167 623.167,743.833 620.5,743.5C 620.5,742.5 620.5,741.5 620.5,740.5C 617.478,740.196 614.478,739.696 611.5,739C 611.957,738.586 612.291,738.086 612.5,737.5C 609.253,736.35 605.92,735.517 602.5,735C 602.957,734.586 603.291,734.086 603.5,733.5C 600.5,732.667 597.5,731.833 594.5,731C 595.833,730.333 595.833,729.667 594.5,729C 589.149,726.614 583.149,724.614 576.5,723C 576.957,722.586 577.291,722.086 577.5,721.5C 573.808,720.748 570.142,719.914 566.5,719C 567.833,718.333 567.833,717.667 566.5,717C 562.75,716.74 559.084,716.073 555.5,715C 555.957,714.586 556.291,714.086 556.5,713.5C 551.792,712.816 547.126,711.982 542.5,711C 543.833,710.333 543.833,709.667 542.5,709C 523.833,708.333 505.167,708.333 486.5,709C 485.167,709.667 485.167,710.333 486.5,711C 482.619,712.19 478.619,712.857 474.5,713C 473.167,713.667 473.167,714.333 474.5,715C 471.556,715.97 468.556,716.804 465.5,717.5C 465.709,718.086 466.043,718.586 466.5,719C 463.937,720.079 461.271,720.579 458.5,720.5C 458.719,721.675 458.386,722.675 457.5,723.5C 455.465,724.041 453.465,724.708 451.5,725.5C 451.709,726.086 452.043,726.586 452.5,727C 450.026,727.113 448.026,728.113 446.5,730C 446.833,730.333 447.167,730.667 447.5,731C 444.656,732.38 441.99,733.88 439.5,735.5C 439.833,738.5 438.5,739.833 435.5,739.5C 435.5,740.833 435.5,742.167 435.5,743.5C 432.5,743.167 431.167,744.5 431.5,747.5C 429.641,747.461 428.308,748.294 427.5,750C 427.966,751.299 427.966,752.799 427.5,754.5C 426.178,754.33 425.011,754.663 424,755.5C 423.667,757.5 423.333,759.5 423,761.5C 421.658,760.098 420.824,760.431 420.5,762.5C 419.892,765.145 419.392,767.812 419,770.5C 418.586,770.043 418.086,769.709 417.5,769.5C 415.939,771.283 415.605,773.116 416.5,775C 415.815,777.795 415.315,780.628 415,783.5C 414.586,783.043 414.086,782.709 413.5,782.5C 412.167,797.167 412.167,811.833 413.5,826.5C 414.086,826.291 414.586,825.957 415,825.5C 415.509,830.23 416.342,834.897 417.5,839.5C 418.086,839.291 418.586,838.957 419,838.5C 418.996,842.192 419.996,845.525 422,848.5C 422.333,848.167 422.667,847.833 423,847.5C 423.287,849.891 423.787,852.224 424.5,854.5C 425.274,855.711 426.107,855.711 427,854.5C 427.333,856.5 427.667,858.5 428,860.5C 429.011,861.337 430.178,861.67 431.5,861.5C 430.756,864.95 432.09,866.616 435.5,866.5C 435.351,867.552 435.517,868.552 436,869.5C 441.167,874.667 446.333,879.833 451.5,885C 452.793,885.49 454.127,885.657 455.5,885.5C 455.5,886.833 455.5,888.167 455.5,889.5C 457.5,889.5 459.5,889.5 461.5,889.5C 461.281,890.675 461.614,891.675 462.5,892.5C 464.409,893.348 466.409,893.682 468.5,893.5C 468.36,895.124 469.027,896.29 470.5,897C 472.81,897.497 475.143,897.663 477.5,897.5C 477.281,898.675 477.614,899.675 478.5,900.5C 482.111,901.262 485.778,901.762 489.5,902C 488.448,903.716 489.114,904.716 491.5,905C 508.5,905.667 525.5,905.667 542.5,905C 544.886,904.716 545.552,903.716 544.5,902C 548.222,901.762 551.889,901.262 555.5,900.5C 556.386,899.675 556.719,898.675 556.5,897.5C 558.591,897.682 560.591,897.348 562.5,896.5C 563.386,895.675 563.719,894.675 563.5,893.5C 567.241,894.401 569.241,893.068 569.5,889.5C 570.552,889.649 571.552,889.483 572.5,889C 573.264,886.931 573.764,884.764 574,882.5C 574.893,883.711 575.726,883.711 576.5,882.5C 577.393,879.916 577.726,877.249 577.5,874.5C 578.822,874.67 579.989,874.337 581,873.5C 581.514,869.266 583.014,865.6 585.5,862.5C 586.552,862.649 587.552,862.483 588.5,862C 590.341,859.071 592.674,856.571 595.5,854.5C 597.444,853.811 599.444,853.311 601.5,853C 602.167,852 602.833,851 603.5,850C 607.167,849.667 610.833,849.333 614.5,849C 615.833,848.333 615.833,847.667 614.5,847C 620.723,845.419 627.056,845.085 633.5,846C 634.5,847 635.5,848 636.5,849C 640.5,849.333 644.5,849.667 648.5,850C 648.833,851 649.167,852 649.5,853C 651.833,853.333 654.167,853.667 656.5,854C 657.473,856.547 659.307,858.047 662,858.5C 662.667,1007.17 662.667,1155.83 662,1304.5C 661,1304.83 660,1305.17 659,1305.5C 658.667,1308.83 658.333,1312.17 658,1315.5C 657,1316.17 656,1316.83 655,1317.5C 654.502,1320.48 654.335,1323.48 654.5,1326.5C 653.178,1326.33 652.011,1326.66 651,1327.5C 650.503,1329.81 650.337,1332.14 650.5,1334.5C 649.178,1334.33 648.011,1334.66 647,1335.5C 647.316,1339.14 645.982,1341.8 643,1343.5C 642.506,1345.13 642.34,1346.8 642.5,1348.5C 638.932,1348.76 637.599,1350.76 638.5,1354.5C 635.234,1354.43 633.734,1356.1 634,1359.5C 633,1360.17 632,1360.83 631,1361.5C 629.83,1364.77 628.33,1367.77 626.5,1370.5C 623.459,1370.41 621.793,1371.91 621.5,1375C 620.552,1375.48 619.552,1375.65 618.5,1375.5C 618.833,1378.5 617.5,1379.83 614.5,1379.5C 614.594,1382.54 613.094,1384.21 610,1384.5C 609.517,1385.45 609.351,1386.45 609.5,1387.5C 608.448,1387.35 607.448,1387.52 606.5,1388C 604.028,1390.5 601.361,1392.84 598.5,1395C 597.167,1395.33 595.833,1395.67 594.5,1396C 594.167,1397 593.833,1398 593.5,1399C 591.048,1399.29 588.715,1399.96 586.5,1401C 587.833,1401.67 587.833,1402.33 586.5,1403C 584.048,1403.29 581.715,1403.96 579.5,1405C 580.833,1405.67 580.833,1406.33 579.5,1407C 576.833,1407.33 574.167,1407.67 571.5,1408C 571.167,1409 570.833,1410 570.5,1411C 567.5,1411.33 564.5,1411.67 561.5,1412C 560.167,1412.67 560.167,1413.33 561.5,1414C 556.949,1415.21 552.282,1415.88 547.5,1416C 517.813,1416.9 488.146,1416.56 458.5,1415C 457.833,1414.67 457.167,1414.33 456.5,1414C 457.833,1413.33 457.833,1412.67 456.5,1412C 453.5,1411.67 450.5,1411.33 447.5,1411C 446.833,1410 446.167,1409 445.5,1408C 442.833,1407.67 440.167,1407.33 437.5,1407C 436.167,1406.33 436.167,1405.67 437.5,1405C 434.956,1403.91 432.289,1403.24 429.5,1403C 428.167,1402.33 428.167,1401.67 429.5,1401C 427.341,1400.09 425.175,1399.25 423,1398.5C 422.517,1397.55 422.351,1396.55 422.5,1395.5C 418.831,1396.3 416.164,1395.14 414.5,1392C 411.553,1391.89 410.22,1390.39 410.5,1387.5C 409.127,1387.66 407.793,1387.49 406.5,1387C 397.973,1379.81 390.14,1371.97 383,1363.5C 382.51,1362.21 382.343,1360.87 382.5,1359.5C 379.612,1359.78 378.112,1358.45 378,1355.5C 374.864,1353.84 373.697,1351.17 374.5,1347.5C 373.178,1347.67 372.011,1347.34 371,1346.5C 370.667,1344.5 370.333,1342.5 370,1340.5C 369,1340.17 368,1339.83 367,1339.5C 366.667,1337.17 366.333,1334.83 366,1332.5C 364.989,1331.66 363.822,1331.33 362.5,1331.5C 362.665,1328.48 362.498,1325.48 362,1322.5C 361.333,1321.17 360.667,1321.17 360,1322.5C 358.796,1318.28 358.13,1313.95 358,1309.5C 357.333,1092.17 357.333,874.833 358,657.5C 358.333,654.5 358.667,651.5 359,648.5C 360.011,647.663 361.178,647.33 362.5,647.5C 362.336,644.813 362.503,642.146 363,639.5C 365.982,637.804 367.316,635.137 367,631.5C 369.892,630.158 371.225,627.825 371,624.5C 372.011,623.663 373.178,623.33 374.5,623.5C 373.697,619.831 374.864,617.164 378,615.5C 378.49,614.207 378.657,612.873 378.5,611.5C 379.833,611.5 381.167,611.5 382.5,611.5C 382.34,609.801 382.506,608.134 383,606.5C 385.333,604.167 387.667,601.833 390,599.5C 390.483,598.552 390.649,597.552 390.5,596.5C 393.541,596.594 395.207,595.094 395.5,592C 396.448,591.517 397.448,591.351 398.5,591.5C 398.167,588.5 399.5,587.167 402.5,587.5C 402.22,584.612 403.553,583.112 406.5,583C 408.5,580.667 410.5,578.333 412.5,576C 415.848,574.212 419.182,572.546 422.5,571C 423.337,569.989 423.67,568.822 423.5,567.5C 426.864,568.211 429.197,567.044 430.5,564C 433.825,564.225 436.158,562.892 437.5,560C 439.833,559.667 442.167,559.333 444.5,559C 444.833,558 445.167,557 445.5,556C 448.5,555.667 451.5,555.333 454.5,555C 455.167,554 455.833,553 456.5,552C 460.356,551.823 464.023,551.323 467.5,550.5 Z M 490.5,1061.5 C 502.505,1061.33 514.505,1061.5 526.5,1062C 527.938,1062.22 529.271,1062.72 530.5,1063.5C 530.291,1064.09 529.957,1064.59 529.5,1065C 534.833,1065.33 540.167,1065.67 545.5,1066C 547.886,1066.28 548.552,1067.28 547.5,1069C 551.167,1069.33 554.833,1069.67 558.5,1070C 560.481,1070.61 560.815,1071.61 559.5,1073C 562.5,1073.33 565.5,1073.67 568.5,1074C 569.337,1075.01 569.67,1076.18 569.5,1077.5C 571.857,1077.34 574.19,1077.5 576.5,1078C 577.337,1079.01 577.67,1080.18 577.5,1081.5C 579.591,1081.32 581.591,1081.65 583.5,1082.5C 584.386,1083.32 584.719,1084.32 584.5,1085.5C 588.241,1084.6 590.241,1085.93 590.5,1089.5C 593.917,1090.86 597.25,1092.36 600.5,1094C 601.337,1095.01 601.67,1096.18 601.5,1097.5C 602.833,1097.5 604.167,1097.5 605.5,1097.5C 605.5,1098.83 605.5,1100.17 605.5,1101.5C 606.833,1101.5 608.167,1101.5 609.5,1101.5C 609.343,1102.87 609.51,1104.21 610,1105.5C 611.826,1104.16 612.993,1104.66 613.5,1107C 613.484,1109.32 613.484,1111.65 613.5,1114C 610.367,1115.57 607.033,1115.9 603.5,1115C 602.663,1113.99 602.33,1112.82 602.5,1111.5C 599.5,1111.83 598.167,1110.5 598.5,1107.5C 597.167,1107.5 595.833,1107.5 594.5,1107.5C 594.5,1106.5 594.5,1105.5 594.5,1104.5C 592.319,1104.72 590.653,1103.88 589.5,1102C 589.833,1101.67 590.167,1101.33 590.5,1101C 588.221,1100.53 586.221,1099.53 584.5,1098C 584.833,1097.67 585.167,1097.33 585.5,1097C 583.26,1096.02 580.927,1095.52 578.5,1095.5C 578.5,1094.5 578.5,1093.5 578.5,1092.5C 576.146,1092.16 573.813,1091.66 571.5,1091C 570.167,1090.33 570.167,1089.67 571.5,1089C 568.899,1088.08 566.232,1087.41 563.5,1087C 562.167,1086.33 562.167,1085.67 563.5,1085C 560.247,1083.96 556.914,1083.3 553.5,1083C 552.167,1082.33 552.167,1081.67 553.5,1081C 548.877,1080.04 544.21,1079.38 539.5,1079C 538.366,1077.98 538.699,1077.32 540.5,1077C 518.833,1075 497.167,1075 475.5,1077C 477.301,1077.32 477.634,1077.98 476.5,1079C 471.79,1079.38 467.123,1080.04 462.5,1081C 463.833,1081.67 463.833,1082.33 462.5,1083C 459.123,1083.45 455.789,1084.12 452.5,1085C 453.833,1085.67 453.833,1086.33 452.5,1087C 449.883,1087.82 447.216,1088.32 444.5,1088.5C 444.5,1089.5 444.5,1090.5 444.5,1091.5C 442.146,1091.84 439.813,1092.34 437.5,1093C 437.957,1093.41 438.291,1093.91 438.5,1094.5C 434.072,1095.91 430.072,1097.91 426.5,1100.5C 426.5,1101.5 426.5,1102.5 426.5,1103.5C 423.05,1102.76 421.384,1104.09 421.5,1107.5C 417.379,1108.49 414.379,1110.99 412.5,1115C 409.518,1115.5 406.518,1115.66 403.5,1115.5C 403.335,1112.15 403.502,1108.82 404,1105.5C 405.011,1104.66 406.178,1104.33 407.5,1104.5C 408.833,1102.17 410.167,1099.83 411.5,1097.5C 412.833,1097.5 414.167,1097.5 415.5,1097.5C 415.5,1096.17 415.5,1094.83 415.5,1093.5C 418.95,1094.24 420.616,1092.91 420.5,1089.5C 423.864,1090.21 426.197,1089.04 427.5,1086C 428.793,1085.51 430.127,1085.34 431.5,1085.5C 431.281,1084.32 431.614,1083.32 432.5,1082.5C 434.409,1081.65 436.409,1081.32 438.5,1081.5C 438.33,1080.18 438.663,1079.01 439.5,1078C 441.81,1077.5 444.143,1077.34 446.5,1077.5C 446.33,1076.18 446.663,1075.01 447.5,1074C 450.5,1073.67 453.5,1073.33 456.5,1073C 455.007,1071.84 455.174,1071.01 457,1070.5C 460.794,1069.77 464.627,1069.27 468.5,1069C 468.043,1068.59 467.709,1068.09 467.5,1067.5C 468.729,1066.72 470.062,1066.22 471.5,1066C 476.833,1065.67 482.167,1065.33 487.5,1065C 486.692,1064.69 486.025,1064.19 485.5,1063.5C 487.291,1062.83 488.958,1062.16 490.5,1061.5 Z M 430.5,1145.5 C 428.787,1144.36 428.12,1142.7 428.5,1140.5C 429.5,1140.5 430.5,1140.5 431.5,1140.5C 431.351,1139.45 431.517,1138.45 432,1137.5C 434.833,1134.67 437.667,1131.83 440.5,1129C 441.448,1128.52 442.448,1128.35 443.5,1128.5C 443.5,1127.5 443.5,1126.5 443.5,1125.5C 444.833,1125.5 446.167,1125.5 447.5,1125.5C 447.33,1124.18 447.663,1123.01 448.5,1122C 450.433,1121.75 452.266,1121.25 454,1120.5C 454.483,1119.55 454.649,1118.55 454.5,1117.5C 458.169,1118.3 460.836,1117.14 462.5,1114C 464.833,1113.67 467.167,1113.33 469.5,1113C 469.833,1112 470.167,1111 470.5,1110C 474.152,1109.5 477.818,1109.33 481.5,1109.5C 481.33,1108.18 481.663,1107.01 482.5,1106C 499.5,1105.33 516.5,1105.33 533.5,1106C 534.337,1107.01 534.67,1108.18 534.5,1109.5C 538.182,1109.33 541.848,1109.5 545.5,1110C 546.337,1111.01 546.67,1112.18 546.5,1113.5C 549.167,1113.5 551.833,1113.5 554.5,1113.5C 554.351,1114.55 554.517,1115.55 555,1116.5C 557.069,1117.26 559.236,1117.76 561.5,1118C 562.337,1119.01 562.67,1120.18 562.5,1121.5C 566.167,1122.83 569.833,1124.17 573.5,1125.5C 574.833,1127.83 576.167,1130.17 577.5,1132.5C 580.5,1132.17 581.833,1133.5 581.5,1136.5C 582.822,1136.33 583.989,1136.66 585,1137.5C 585.498,1140.82 585.665,1144.15 585.5,1147.5C 582.167,1147.5 578.833,1147.5 575.5,1147.5C 575.509,1145.69 575.009,1144.02 574,1142.5C 573.667,1142.83 573.333,1143.17 573,1143.5C 572.065,1140.9 570.232,1139.4 567.5,1139C 567.167,1138 566.833,1137 566.5,1136C 565.207,1135.51 563.873,1135.34 562.5,1135.5C 562.567,1132.23 560.901,1130.73 557.5,1131C 555.836,1127.86 553.169,1126.7 549.5,1127.5C 549.67,1126.18 549.337,1125.01 548.5,1124C 545.833,1123.67 543.167,1123.33 540.5,1123C 539.833,1122 539.167,1121 538.5,1120C 533.386,1119.89 528.386,1119.22 523.5,1118C 525.878,1117.03 525.544,1116.36 522.5,1116C 511.76,1115.07 501.093,1115.4 490.5,1117C 493.167,1117.67 493.167,1118.33 490.5,1119C 486.167,1119.33 481.833,1119.67 477.5,1120C 476.833,1121 476.167,1122 475.5,1123C 472.377,1123.21 469.377,1123.87 466.5,1125C 467.833,1125.67 467.833,1126.33 466.5,1127C 462.863,1126.68 460.196,1128.02 458.5,1131C 457.207,1131.49 455.873,1131.66 454.5,1131.5C 454.567,1134.77 452.901,1136.27 449.5,1136C 445.675,1138.99 442.341,1142.49 439.5,1146.5C 438.061,1147.06 436.561,1147.4 435,1147.5C 432.992,1147.69 431.492,1147.03 430.5,1145.5 Z M 496.5,1145.5 C 504.528,1145.17 512.528,1145.5 520.5,1146.5C 519.45,1148.1 520.117,1148.94 522.5,1149C 525.833,1149.33 529.167,1149.67 532.5,1150C 533.833,1150.67 533.833,1151.33 532.5,1152C 534.715,1153.04 537.048,1153.71 539.5,1154C 540.833,1154.67 540.833,1155.33 539.5,1156C 541.392,1156.97 543.392,1157.64 545.5,1158C 546.833,1158.67 546.833,1159.33 545.5,1160C 548.452,1161.19 551.119,1162.69 553.5,1164.5C 553.5,1165.83 553.5,1167.17 553.5,1168.5C 554.833,1168.5 556.167,1168.5 557.5,1168.5C 557.5,1170.17 557.5,1171.83 557.5,1173.5C 558.5,1173.5 559.5,1173.5 560.5,1173.5C 560.015,1177.48 557.681,1179.65 553.5,1180C 554.711,1180.89 554.711,1181.73 553.5,1182.5C 552.614,1181.68 552.281,1180.68 552.5,1179.5C 550.833,1179.5 549.167,1179.5 547.5,1179.5C 547.657,1178.13 547.49,1176.79 547,1175.5C 545.167,1174.33 543.667,1172.83 542.5,1171C 541.552,1170.52 540.552,1170.35 539.5,1170.5C 539.5,1169.5 539.5,1168.5 539.5,1167.5C 536.05,1168.24 534.384,1166.91 534.5,1163.5C 531.351,1163.79 528.351,1163.29 525.5,1162C 525.957,1161.59 526.291,1161.09 526.5,1160.5C 514.518,1159.5 502.518,1159.17 490.5,1159.5C 490.719,1160.68 490.386,1161.68 489.5,1162.5C 487.224,1163.21 484.891,1163.71 482.5,1164C 481.167,1164.67 481.167,1165.33 482.5,1166C 480.608,1166.97 478.608,1167.64 476.5,1168C 472.604,1171.18 469.271,1174.85 466.5,1179C 463.167,1179.67 459.833,1179.67 456.5,1179C 454.527,1175.24 455.527,1173.08 459.5,1172.5C 459.343,1171.13 459.51,1169.79 460,1168.5C 461.999,1166.75 464.165,1165.41 466.5,1164.5C 466.167,1161.5 467.5,1160.17 470.5,1160.5C 470.746,1157.53 472.412,1156.2 475.5,1156.5C 475.5,1155.5 475.5,1154.5 475.5,1153.5C 478.32,1153.75 480.986,1153.25 483.5,1152C 482.167,1151.33 482.167,1150.67 483.5,1150C 487.918,1149.79 492.251,1149.13 496.5,1148C 495.402,1147.23 495.402,1146.4 496.5,1145.5 Z M 461.5,1180.5 C 463.337,1180.64 463.67,1181.31 462.5,1182.5C 461.702,1182.04 461.369,1181.38 461.5,1180.5 Z M 499.5,1188.5 C 505.176,1188.33 510.843,1188.5 516.5,1189C 517.973,1189.71 518.64,1190.88 518.5,1192.5C 519.552,1192.35 520.552,1192.52 521.5,1193C 524.806,1195.23 526.306,1198.39 526,1202.5C 526.667,1203.83 527.333,1203.83 528,1202.5C 530.56,1206.96 529.894,1210.62 526,1213.5C 525.667,1215.5 525.333,1217.5 525,1219.5C 524.333,1220.83 523.667,1220.83 523,1219.5C 522.644,1222.73 520.81,1224.23 517.5,1224C 517.957,1224.41 518.291,1224.91 518.5,1225.5C 511.866,1226.5 505.2,1226.83 498.5,1226.5C 498.5,1225.5 498.5,1224.5 498.5,1223.5C 494.036,1222.7 491.703,1220.04 491.5,1215.5C 490.178,1215.67 489.011,1215.34 488,1214.5C 487.333,1210.17 487.333,1205.83 488,1201.5C 489.011,1200.66 490.178,1200.33 491.5,1200.5C 491.427,1195.74 493.761,1192.9 498.5,1192C 498.167,1191.67 497.833,1191.33 497.5,1191C 498.381,1190.29 499.047,1189.46 499.5,1188.5 Z"/></g>
<g><path style="opacity:0.658" fill="#fefffe" d="M 726.5,690.5 C 737.838,690.333 749.172,690.5 760.5,691C 763.266,691.813 764.933,693.646 765.5,696.5C 764.675,697.386 763.675,697.719 762.5,697.5C 761.836,702.473 761.503,707.473 761.5,712.5C 759.876,712.36 758.71,713.027 758,714.5C 757.667,718.5 757.333,722.5 757,726.5C 756.107,725.289 755.274,725.289 754.5,726.5C 753.732,730.445 753.232,734.445 753,738.5C 751.284,737.448 750.284,738.114 750,740.5C 749.502,743.817 749.335,747.15 749.5,750.5C 751.877,750.784 754.044,750.784 756,750.5C 756.333,747.167 756.667,743.833 757,740.5C 757.308,741.308 757.808,741.975 758.5,742.5C 759.496,737.866 760.329,733.2 761,728.5C 761.414,728.957 761.914,729.291 762.5,729.5C 763.5,727.5 764.5,725.5 765.5,723.5C 767.773,722.625 768.773,720.958 768.5,718.5C 769.833,718.5 771.167,718.5 772.5,718.5C 772.33,717.178 772.663,716.011 773.5,715C 778.679,714.946 783.679,714.279 788.5,713C 787.355,706.248 787.189,699.414 788,692.5C 788.5,692 789,691.5 789.5,691C 797.413,690.186 805.246,690.353 813,691.5C 813.167,704.846 813.667,718.179 814.5,731.5C 815.273,729.187 815.94,726.854 816.5,724.5C 818.637,723.262 819.971,721.429 820.5,719C 821.448,718.517 822.448,718.351 823.5,718.5C 823.433,715.234 825.099,713.734 828.5,714C 829.337,712.989 829.67,711.822 829.5,710.5C 836.508,710.334 843.508,710.5 850.5,711C 851.45,713.91 853.45,715.077 856.5,714.5C 856.167,717.5 857.5,718.833 860.5,718.5C 860.197,721.588 861.53,723.254 864.5,723.5C 864.312,725.103 864.812,726.437 866,727.5C 867.252,724.986 867.752,722.32 867.5,719.5C 870.91,719.616 872.244,717.95 871.5,714.5C 874.5,714.833 875.833,713.5 875.5,710.5C 877.199,710.66 878.866,710.494 880.5,710C 880.833,709 881.167,708 881.5,707C 888.5,706.333 895.5,706.333 902.5,707C 903.499,709.761 905.499,711.094 908.5,711C 908.833,712 909.167,713 909.5,714C 910.448,714.483 911.448,714.649 912.5,714.5C 912.167,717.5 913.5,718.833 916.5,718.5C 916.281,719.675 916.614,720.675 917.5,721.5C 919.026,718.346 919.693,715.013 919.5,711.5C 922.388,711.78 923.888,710.447 924,707.5C 926.693,707.047 928.527,705.547 929.5,703C 935.5,702.333 941.5,702.333 947.5,703C 948.482,711.081 948.816,719.248 948.5,727.5C 946.516,727.383 944.85,728.05 943.5,729.5C 944.64,738.785 944.806,748.119 944,757.5C 941.776,759.054 939.276,760.054 936.5,760.5C 935.614,761.325 935.281,762.325 935.5,763.5C 929.833,764.075 924.167,764.242 918.5,764C 916.496,762.577 914.996,760.744 914,758.5C 913.027,760.392 912.36,762.392 912,764.5C 909.821,766.348 907.987,768.515 906.5,771C 904.833,771.333 903.167,771.667 901.5,772C 900.663,773.011 900.33,774.178 900.5,775.5C 892.167,775.5 883.833,775.5 875.5,775.5C 875.833,772.5 874.5,771.167 871.5,771.5C 871.833,768.5 870.5,767.167 867.5,767.5C 867.819,765.25 867.319,763.25 866,761.5C 865.703,764.914 865.036,768.247 864,771.5C 862.853,770.542 861.853,770.875 861,772.5C 859.261,778.705 854.761,782.705 847.5,784.5C 846.614,785.325 846.281,786.325 846.5,787.5C 841.167,787.5 835.833,787.5 830.5,787.5C 830.719,786.325 830.386,785.325 829.5,784.5C 827.591,783.652 825.591,783.318 823.5,783.5C 823.5,782.167 823.5,780.833 823.5,779.5C 820.612,779.78 819.112,778.447 819,775.5C 818,775.167 817,774.833 816,774.5C 815.818,771.774 815.318,769.107 814.5,766.5C 813.071,771.241 811.238,775.241 809,778.5C 807.989,779.337 806.822,779.67 805.5,779.5C 805.5,780.833 805.5,782.167 805.5,783.5C 802.05,782.756 800.384,784.09 800.5,787.5C 797.813,787.336 795.146,787.503 792.5,788C 790.894,789.122 789.227,790.288 787.5,791.5C 785.079,791.771 784.413,791.105 785.5,789.5C 781.656,788.018 777.656,787.185 773.5,787C 772.663,785.989 772.33,784.822 772.5,783.5C 771.167,783.5 769.833,783.5 768.5,783.5C 768.884,781.335 768.217,779.668 766.5,778.5C 766.002,781.593 765.002,784.426 763.5,787C 757.804,787.83 752.137,787.663 746.5,786.5C 746.709,785.914 747.043,785.414 747.5,785C 739.218,783.836 730.884,783.169 722.5,783C 723.552,781.284 722.886,780.284 720.5,780C 716.833,779.667 713.167,779.333 709.5,779C 708.663,777.989 708.33,776.822 708.5,775.5C 702.824,775.666 697.157,775.499 691.5,775C 692.993,773.844 692.826,773.01 691,772.5C 687.872,771.796 684.706,771.296 681.5,771C 682.458,769.853 682.125,768.853 680.5,768C 679.207,767.51 677.873,767.343 676.5,767.5C 676.5,766.167 676.5,764.833 676.5,763.5C 675.167,763.5 673.833,763.5 672.5,763.5C 672.657,762.127 672.49,760.793 672,759.5C 671,759.167 670,758.833 669,758.5C 668.667,755.5 668.333,752.5 668,749.5C 667.333,748.167 666.667,748.167 666,749.5C 664.43,736.214 664.097,722.881 665,709.5C 665.415,707.709 666.415,706.376 668,705.5C 668.333,703.833 668.667,702.167 669,700.5C 672.416,699.342 674.582,697.508 675.5,695C 690.855,694.764 706.188,694.097 721.5,693C 718.5,692.667 715.5,692.333 712.5,692C 717.351,691.826 722.018,691.326 726.5,690.5 Z M 709.5,724.5 C 714.5,724.5 719.5,724.5 724.5,724.5C 724.896,727.482 724.229,730.149 722.5,732.5C 721.914,732.291 721.414,731.957 721,731.5C 720.667,735.167 720.333,738.833 720,742.5C 718.989,743.337 717.822,743.67 716.5,743.5C 716.665,746.85 716.498,750.183 716,753.5C 715.29,754.973 714.124,755.64 712.5,755.5C 712.924,759.703 712.424,763.703 711,767.5C 709.513,753.156 709.013,738.822 709.5,724.5 Z M 889.5,739.5 C 890.693,739.97 891.36,740.97 891.5,742.5C 891.167,743.5 890.833,744.5 890.5,745.5C 888.834,743.579 888.5,741.579 889.5,739.5 Z M 838.5,744.5 C 839.289,744.783 839.956,745.283 840.5,746C 840.735,748.394 840.235,750.894 839,753.5C 837.281,750.546 837.115,747.546 838.5,744.5 Z M 785.5,747.5 C 786.995,747.415 787.995,748.081 788.5,749.5C 788.475,751.63 787.975,753.63 787,755.5C 785.625,753.063 785.125,750.397 785.5,747.5 Z"/></g>
<g><path style="opacity:0.879" fill="#fefffe" d="M 486.5,726.5 C 503.833,726.5 521.167,726.5 538.5,726.5C 538.36,728.124 539.027,729.29 540.5,730C 544.152,730.499 547.818,730.665 551.5,730.5C 551.36,732.124 552.027,733.29 553.5,734C 556.482,734.498 559.482,734.665 562.5,734.5C 562.36,736.124 563.027,737.29 564.5,738C 567.482,738.498 570.482,738.665 573.5,738.5C 573.33,739.822 573.663,740.989 574.5,742C 577.833,742.333 581.167,742.667 584.5,743C 583.289,743.893 583.289,744.726 584.5,745.5C 587.777,746.254 591.11,746.754 594.5,747C 593.185,748.395 593.519,749.395 595.5,750C 598.482,750.498 601.482,750.665 604.5,750.5C 604.281,751.675 604.614,752.675 605.5,753.5C 608.443,754.244 611.443,754.744 614.5,755C 613.185,756.395 613.519,757.395 615.5,758C 618.5,758.333 621.5,758.667 624.5,759C 623.007,760.156 623.174,760.99 625,761.5C 628.128,762.204 631.294,762.704 634.5,763C 633.007,764.156 633.174,764.99 635,765.5C 638.461,766.218 641.961,766.718 645.5,767C 644.448,768.716 645.114,769.716 647.5,770C 650.833,770.333 654.167,770.667 657.5,771C 656.448,772.716 657.114,773.716 659.5,774C 663.167,774.333 666.833,774.667 670.5,775C 669.167,775.667 669.167,776.333 670.5,777C 675.769,778.106 681.103,778.773 686.5,779C 684.699,779.317 684.366,779.984 685.5,781C 691.826,781.733 698.16,782.399 704.5,783C 703.692,783.308 703.025,783.808 702.5,784.5C 710.483,785.475 718.483,786.308 726.5,787C 726.043,787.414 725.709,787.914 725.5,788.5C 738.151,789.539 750.818,790.372 763.5,791C 762.5,791.333 761.5,791.667 760.5,792C 760.833,792.333 761.167,792.667 761.5,793C 782.175,793.833 802.841,793.666 823.5,792.5C 822.975,791.808 822.308,791.308 821.5,791C 833.206,790.665 844.873,789.831 856.5,788.5C 856.291,787.914 855.957,787.414 855.5,787C 863.179,786.261 870.845,785.428 878.5,784.5C 878.291,783.914 877.957,783.414 877.5,783C 884.015,782.577 890.349,781.577 896.5,780C 895.833,779.667 895.167,779.333 894.5,779C 898.5,778.667 902.5,778.333 906.5,778C 908.886,777.716 909.552,776.716 908.5,775C 912.167,774.667 915.833,774.333 919.5,774C 920.973,773.29 921.64,772.124 921.5,770.5C 925.722,770.922 929.722,770.255 933.5,768.5C 933.291,767.914 932.957,767.414 932.5,767C 936.039,766.718 939.539,766.218 943,765.5C 944.826,764.99 944.993,764.156 943.5,763C 947.191,762.58 950.858,762.08 954.5,761.5C 954.5,760.5 954.5,759.5 954.5,758.5C 957.187,758.664 959.854,758.497 962.5,758C 964.481,757.395 964.815,756.395 963.5,755C 967.37,754.895 971.037,754.062 974.5,752.5C 974.291,751.914 973.957,751.414 973.5,751C 974.793,750.51 976.127,750.343 977.5,750.5C 977.667,770.169 977.5,789.836 977,809.5C 977.266,812.901 975.766,814.567 972.5,814.5C 973.211,817.864 972.044,820.197 969,821.5C 968.846,824.525 967.346,826.191 964.5,826.5C 964.723,829.114 963.556,830.781 961,831.5C 960.888,834.447 959.388,835.78 956.5,835.5C 956.833,838.5 955.5,839.833 952.5,839.5C 952.833,842.5 951.5,843.833 948.5,843.5C 948.5,844.5 948.5,845.5 948.5,846.5C 946.319,846.284 944.653,847.117 943.5,849C 943.833,849.333 944.167,849.667 944.5,850C 941.578,850.292 939.578,851.792 938.5,854.5C 936.885,855.154 935.218,855.654 933.5,856C 933.096,858.749 931.096,859.916 927.5,859.5C 927.719,860.675 927.386,861.675 926.5,862.5C 924.556,863.189 922.556,863.689 920.5,864C 919.167,864.667 919.167,865.333 920.5,866C 917.649,867.289 914.649,867.789 911.5,867.5C 911.64,869.124 910.973,870.29 909.5,871C 906.833,871.333 904.167,871.667 901.5,872C 900.167,872.667 900.167,873.333 901.5,874C 896.917,875.145 892.251,875.811 887.5,876C 886.167,876.667 886.167,877.333 887.5,878C 877.216,879.204 866.882,879.87 856.5,880C 855.5,880.333 854.5,880.667 853.5,881C 855.167,881.333 856.833,881.667 858.5,882C 851.167,882.667 843.833,882.667 836.5,882C 838.167,881.667 839.833,881.333 841.5,881C 840.833,880.667 840.167,880.333 839.5,880C 825.465,879.866 811.465,879.199 797.5,878C 797.957,877.586 798.291,877.086 798.5,876.5C 789.472,875.848 780.472,875.014 771.5,874C 773.301,873.683 773.634,873.016 772.5,872C 765.77,871.83 759.103,871.163 752.5,870C 752.957,869.586 753.291,869.086 753.5,868.5C 747.786,867.855 742.119,867.022 736.5,866C 737.833,865.333 737.833,864.667 736.5,864C 731.416,863.827 726.416,863.161 721.5,862C 722.833,861.333 722.833,860.667 721.5,860C 717.049,859.87 712.716,859.204 708.5,858C 708.957,857.586 709.291,857.086 709.5,856.5C 705.093,855.875 700.759,855.042 696.5,854C 697.833,853.333 697.833,852.667 696.5,852C 693.5,851.667 690.5,851.333 687.5,851C 686.027,850.29 685.36,849.124 685.5,847.5C 681.692,847.837 678.026,847.337 674.5,846C 675.833,845.333 675.833,844.667 674.5,844C 670.713,843.84 667.046,843.174 663.5,842C 664.833,841.333 664.833,840.667 663.5,840C 659.167,839.667 654.833,839.333 650.5,839C 650.167,838 649.833,837 649.5,836C 641.833,835.667 634.167,835.333 626.5,835C 623.456,834.641 623.122,833.974 625.5,833C 615.894,831.443 606.228,831.109 596.5,832C 595.167,833 593.833,834 592.5,835C 589.571,835.777 586.737,835.61 584,834.5C 582.847,837.711 582.18,841.044 582,844.5C 581.586,844.043 581.086,843.709 580.5,843.5C 579.359,846.062 578.526,848.728 578,851.5C 576.658,850.098 575.824,850.431 575.5,852.5C 574.954,854.135 574.62,855.801 574.5,857.5C 571.53,857.746 570.197,859.412 570.5,862.5C 567.5,862.167 566.167,863.5 566.5,866.5C 563.537,866.953 561.204,868.453 559.5,871C 558.207,871.49 556.873,871.657 555.5,871.5C 555.5,872.5 555.5,873.5 555.5,874.5C 553.5,874.833 551.5,875.167 549.5,875.5C 549.5,876.5 549.5,877.5 549.5,878.5C 546.513,878.998 543.513,879.498 540.5,880C 539.167,880.667 539.167,881.333 540.5,882C 535.231,883.106 529.897,883.773 524.5,884C 523.366,885.016 523.699,885.683 525.5,886C 515.164,887.945 504.83,887.945 494.5,886C 496.301,885.683 496.634,885.016 495.5,884C 490.118,883.693 484.785,883.026 479.5,882C 479.957,881.586 480.291,881.086 480.5,880.5C 477.562,879.511 474.562,878.844 471.5,878.5C 471.5,877.5 471.5,876.5 471.5,875.5C 468.78,875.369 466.113,874.869 463.5,874C 464.833,873.333 464.833,872.667 463.5,872C 461.975,870.991 460.308,870.491 458.5,870.5C 458.833,867.5 457.5,866.167 454.5,866.5C 454.5,865.5 454.5,864.5 454.5,863.5C 453.167,863.5 451.833,863.5 450.5,863.5C 450.762,862.022 450.429,860.689 449.5,859.5C 448.575,858.359 447.741,858.359 447,859.5C 447.266,856.099 445.766,854.433 442.5,854.5C 442.61,851.941 441.944,849.608 440.5,847.5C 439.914,847.709 439.414,848.043 439,848.5C 438.802,845.298 437.969,842.298 436.5,839.5C 435.914,839.709 435.414,840.043 435,840.5C 434.886,835.676 434.053,831.01 432.5,826.5C 431.914,826.709 431.414,827.043 431,827.5C 430.333,814.833 430.333,802.167 431,789.5C 431.333,789.833 431.667,790.167 432,790.5C 434.173,786.49 435.006,782.157 434.5,777.5C 435.5,777.5 436.5,777.5 437.5,777.5C 437.998,774.513 438.498,771.513 439,768.5C 440.156,769.993 440.99,769.826 441.5,768C 442.233,766.234 442.567,764.401 442.5,762.5C 443.552,762.649 444.552,762.483 445.5,762C 446.568,757.966 448.568,754.466 451.5,751.5C 453.526,750.63 454.859,749.13 455.5,747C 456.448,746.517 457.448,746.351 458.5,746.5C 458.406,743.459 459.906,741.793 463,741.5C 463.483,740.552 463.649,739.552 463.5,738.5C 465.989,738.702 468.323,738.202 470.5,737C 469.167,736.333 469.167,735.667 470.5,735C 472.167,734.667 473.833,734.333 475.5,734C 476.337,732.989 476.67,731.822 476.5,730.5C 480.308,730.837 483.974,730.337 487.5,729C 486.748,728.329 486.414,727.496 486.5,726.5 Z"/></g>
</svg>
