<?xml version="1.0" encoding="UTF-8"?>
<!DOCTYPE svg PUBLIC "-//W3C//DTD SVG 1.1//EN" "http://www.w3.org/Graphics/SVG/1.1/DTD/svg11.dtd">
<svg xmlns="http://www.w3.org/2000/svg" version="1.1" width="1920px" height="1920px" style="shape-rendering:geometricPrecision; text-rendering:geometricPrecision; image-rendering:optimizeQuality; fill-rule:evenodd; clip-rule:evenodd" xmlns:xlink="http://www.w3.org/1999/xlink">
<g><path style="opacity:0.916" fill="#fefffe" d="M 903.5,526.5 C 931.189,526.113 958.856,526.613 986.5,528C 987.167,528.333 987.833,528.667 988.5,529C 987.167,529.667 987.167,530.333 988.5,531C 991.833,531.333 995.167,531.667 998.5,532C 998.833,533 999.167,534 999.5,535C 1002.5,535.333 1005.5,535.667 1008.5,536C 1008.83,537 1009.17,538 1009.5,539C 1011.83,539.333 1014.17,539.667 1016.5,540C 1016.83,541 1017.17,542 1017.5,543C 1021.5,544.667 1025.5,546.333 1029.5,548C 1029.83,549 1030.17,550 1030.5,551C 1031.83,551.333 1033.17,551.667 1034.5,552C 1037.36,554.162 1040.03,556.496 1042.5,559C 1043.45,559.483 1044.45,559.649 1045.5,559.5C 1045.41,562.541 1046.91,564.207 1050,564.5C 1050.48,565.448 1050.65,566.448 1050.5,567.5C 1051.83,567.5 1053.17,567.5 1054.5,567.5C 1054.5,568.833 1054.5,570.167 1054.5,571.5C 1055.83,571.5 1057.17,571.5 1058.5,571.5C 1058.5,572.833 1058.5,574.167 1058.5,575.5C 1059.83,575.5 1061.17,575.5 1062.5,575.5C 1062.5,576.833 1062.5,578.167 1062.5,579.5C 1065.39,579.22 1066.89,580.553 1067,583.5C 1067.67,584.833 1068.33,584.833 1069,583.5C 1069.67,584.833 1070.33,586.167 1071,587.5C 1075.03,590.18 1077.7,593.847 1079,598.5C 1080.01,599.337 1081.18,599.67 1082.5,599.5C 1082.34,600.873 1082.51,602.207 1083,603.5C 1084,603.833 1085,604.167 1086,604.5C 1086.33,606.5 1086.67,608.5 1087,610.5C 1088,610.833 1089,611.167 1090,611.5C 1089.68,615.137 1091.02,617.804 1094,619.5C 1094.33,622.167 1094.67,624.833 1095,627.5C 1096,628.167 1097,628.833 1098,629.5C 1098.67,664.5 1098.67,699.5 1098,734.5C 1094.26,735.626 1090.42,735.793 1086.5,735C 1086.96,734.586 1087.29,734.086 1087.5,733.5C 1085.03,732.104 1082.36,731.27 1079.5,731C 1079.96,730.586 1080.29,730.086 1080.5,729.5C 1077.99,728.205 1075.32,727.539 1072.5,727.5C 1072.5,726.5 1072.5,725.5 1072.5,724.5C 1069.83,724.167 1067.17,723.833 1064.5,723.5C 1064.5,722.5 1064.5,721.5 1064.5,720.5C 1061.83,720.167 1059.17,719.833 1056.5,719.5C 1056.5,718.5 1056.5,717.5 1056.5,716.5C 1053.48,716.196 1050.48,715.696 1047.5,715C 1047.96,714.586 1048.29,714.086 1048.5,713.5C 1045.25,712.35 1041.92,711.517 1038.5,711C 1038.96,710.586 1039.29,710.086 1039.5,709.5C 1036.5,708.667 1033.5,707.833 1030.5,707C 1031.83,706.333 1031.83,705.667 1030.5,705C 1025.15,702.614 1019.15,700.614 1012.5,699C 1012.96,698.586 1013.29,698.086 1013.5,697.5C 1009.81,696.748 1006.14,695.914 1002.5,695C 1003.83,694.333 1003.83,693.667 1002.5,693C 998.75,692.74 995.084,692.073 991.5,691C 991.957,690.586 992.291,690.086 992.5,689.5C 987.792,688.816 983.126,687.982 978.5,687C 979.833,686.333 979.833,685.667 978.5,685C 959.833,684.333 941.167,684.333 922.5,685C 921.167,685.667 921.167,686.333 922.5,687C 918.619,688.19 914.619,688.857 910.5,689C 909.167,689.667 909.167,690.333 910.5,691C 907.556,691.97 904.556,692.804 901.5,693.5C 901.709,694.086 902.043,694.586 902.5,695C 899.937,696.079 897.271,696.579 894.5,696.5C 894.719,697.675 894.386,698.675 893.5,699.5C 891.465,700.041 889.465,700.708 887.5,701.5C 887.709,702.086 888.043,702.586 888.5,703C 886.026,703.113 884.026,704.113 882.5,706C 882.833,706.333 883.167,706.667 883.5,707C 880.656,708.38 877.99,709.88 875.5,711.5C 875.833,714.5 874.5,715.833 871.5,715.5C 871.5,716.833 871.5,718.167 871.5,719.5C 868.5,719.167 867.167,720.5 867.5,723.5C 865.641,723.461 864.308,724.294 863.5,726C 863.966,727.299 863.966,728.799 863.5,730.5C 862.178,730.33 861.011,730.663 860,731.5C 859.667,733.5 859.333,735.5 859,737.5C 857.658,736.098 856.824,736.431 856.5,738.5C 855.892,741.145 855.392,743.812 855,746.5C 854.586,746.043 854.086,745.709 853.5,745.5C 851.939,747.283 851.605,749.116 852.5,751C 851.815,753.795 851.315,756.628 851,759.5C 850.586,759.043 850.086,758.709 849.5,758.5C 848.167,773.167 848.167,787.833 849.5,802.5C 850.086,802.291 850.586,801.957 851,801.5C 851.509,806.23 852.342,810.897 853.5,815.5C 854.086,815.291 854.586,814.957 855,814.5C 854.996,818.192 855.996,821.525 858,824.5C 858.333,824.167 858.667,823.833 859,823.5C 859.287,825.891 859.787,828.224 860.5,830.5C 861.274,831.711 862.107,831.711 863,830.5C 863.333,832.5 863.667,834.5 864,836.5C 865.011,837.337 866.178,837.67 867.5,837.5C 866.756,840.95 868.09,842.616 871.5,842.5C 871.351,843.552 871.517,844.552 872,845.5C 877.167,850.667 882.333,855.833 887.5,861C 888.793,861.49 890.127,861.657 891.5,861.5C 891.5,862.833 891.5,864.167 891.5,865.5C 893.5,865.5 895.5,865.5 897.5,865.5C 897.281,866.675 897.614,867.675 898.5,868.5C 900.409,869.348 902.409,869.682 904.5,869.5C 904.36,871.124 905.027,872.29 906.5,873C 908.81,873.497 911.143,873.663 913.5,873.5C 913.281,874.675 913.614,875.675 914.5,876.5C 918.111,877.262 921.778,877.762 925.5,878C 924.448,879.716 925.114,880.716 927.5,881C 944.5,881.667 961.5,881.667 978.5,881C 980.886,880.716 981.552,879.716 980.5,878C 984.222,877.762 987.889,877.262 991.5,876.5C 992.386,875.675 992.719,874.675 992.5,873.5C 994.591,873.682 996.591,873.348 998.5,872.5C 999.386,871.675 999.719,870.675 999.5,869.5C 1003.24,870.401 1005.24,869.068 1005.5,865.5C 1006.55,865.649 1007.55,865.483 1008.5,865C 1009.26,862.931 1009.76,860.764 1010,858.5C 1010.89,859.711 1011.73,859.711 1012.5,858.5C 1013.39,855.916 1013.73,853.249 1013.5,850.5C 1014.82,850.67 1015.99,850.337 1017,849.5C 1017.51,845.266 1019.01,841.6 1021.5,838.5C 1022.55,838.649 1023.55,838.483 1024.5,838C 1026.34,835.071 1028.67,832.571 1031.5,830.5C 1033.44,829.811 1035.44,829.311 1037.5,829C 1038.17,828 1038.83,827 1039.5,826C 1043.17,825.667 1046.83,825.333 1050.5,825C 1051.83,824.333 1051.83,823.667 1050.5,823C 1056.72,821.419 1063.06,821.085 1069.5,822C 1070.5,823 1071.5,824 1072.5,825C 1076.5,825.333 1080.5,825.667 1084.5,826C 1084.83,827 1085.17,828 1085.5,829C 1087.83,829.333 1090.17,829.667 1092.5,830C 1093.47,832.547 1095.31,834.047 1098,834.5C 1098.67,983.167 1098.67,1131.83 1098,1280.5C 1097,1280.83 1096,1281.17 1095,1281.5C 1094.67,1284.83 1094.33,1288.17 1094,1291.5C 1093,1292.17 1092,1292.83 1091,1293.5C 1090.5,1296.48 1090.34,1299.48 1090.5,1302.5C 1089.18,1302.33 1088.01,1302.66 1087,1303.5C 1086.5,1305.81 1086.34,1308.14 1086.5,1310.5C 1085.18,1310.33 1084.01,1310.66 1083,1311.5C 1083.32,1315.14 1081.98,1317.8 1079,1319.5C 1078.51,1321.13 1078.34,1322.8 1078.5,1324.5C 1074.93,1324.76 1073.6,1326.76 1074.5,1330.5C 1071.23,1330.43 1069.73,1332.1 1070,1335.5C 1069,1336.17 1068,1336.83 1067,1337.5C 1065.83,1340.77 1064.33,1343.77 1062.5,1346.5C 1059.46,1346.41 1057.79,1347.91 1057.5,1351C 1056.55,1351.48 1055.55,1351.65 1054.5,1351.5C 1054.83,1354.5 1053.5,1355.83 1050.5,1355.5C 1050.59,1358.54 1049.09,1360.21 1046,1360.5C 1045.52,1361.45 1045.35,1362.45 1045.5,1363.5C 1044.45,1363.35 1043.45,1363.52 1042.5,1364C 1040.03,1366.5 1037.36,1368.84 1034.5,1371C 1033.17,1371.33 1031.83,1371.67 1030.5,1372C 1030.17,1373 1029.83,1374 1029.5,1375C 1027.05,1375.29 1024.71,1375.96 1022.5,1377C 1023.83,1377.67 1023.83,1378.33 1022.5,1379C 1020.05,1379.29 1017.71,1379.96 1015.5,1381C 1016.83,1381.67 1016.83,1382.33 1015.5,1383C 1012.83,1383.33 1010.17,1383.67 1007.5,1384C 1007.17,1385 1006.83,1386 1006.5,1387C 1003.5,1387.33 1000.5,1387.67 997.5,1388C 996.167,1388.67 996.167,1389.33 997.5,1390C 992.949,1391.21 988.282,1391.88 983.5,1392C 953.813,1392.9 924.146,1392.56 894.5,1391C 893.833,1390.67 893.167,1390.33 892.5,1390C 893.833,1389.33 893.833,1388.67 892.5,1388C 889.5,1387.67 886.5,1387.33 883.5,1387C 882.833,1386 882.167,1385 881.5,1384C 878.833,1383.67 876.167,1383.33 873.5,1383C 872.167,1382.33 872.167,1381.67 873.5,1381C 870.956,1379.91 868.289,1379.24 865.5,1379C 864.167,1378.33 864.167,1377.67 865.5,1377C 863.341,1376.09 861.175,1375.25 859,1374.5C 858.517,1373.55 858.351,1372.55 858.5,1371.5C 854.831,1372.3 852.164,1371.14 850.5,1368C 847.553,1367.89 846.22,1366.39 846.5,1363.5C 845.127,1363.66 843.793,1363.49 842.5,1363C 833.973,1355.81 826.14,1347.97 819,1339.5C 818.51,1338.21 818.343,1336.87 818.5,1335.5C 815.612,1335.78 814.112,1334.45 814,1331.5C 810.864,1329.84 809.697,1327.17 810.5,1323.5C 809.178,1323.67 808.011,1323.34 807,1322.5C 806.667,1320.5 806.333,1318.5 806,1316.5C 805,1316.17 804,1315.83 803,1315.5C 802.667,1313.17 802.333,1310.83 802,1308.5C 800.989,1307.66 799.822,1307.33 798.5,1307.5C 798.665,1304.48 798.498,1301.48 798,1298.5C 797.333,1297.17 796.667,1297.17 796,1298.5C 794.796,1294.28 794.13,1289.95 794,1285.5C 793.333,1068.17 793.333,850.833 794,633.5C 794.333,630.5 794.667,627.5 795,624.5C 796.011,623.663 797.178,623.33 798.5,623.5C 798.336,620.813 798.503,618.146 799,615.5C 801.982,613.804 803.316,611.137 803,607.5C 805.892,606.158 807.225,603.825 807,600.5C 808.011,599.663 809.178,599.33 810.5,599.5C 809.697,595.831 810.864,593.164 814,591.5C 814.49,590.207 814.657,588.873 814.5,587.5C 815.833,587.5 817.167,587.5 818.5,587.5C 818.34,585.801 818.506,584.134 819,582.5C 821.333,580.167 823.667,577.833 826,575.5C 826.483,574.552 826.649,573.552 826.5,572.5C 829.541,572.594 831.207,571.094 831.5,568C 832.448,567.517 833.448,567.351 834.5,567.5C 834.167,564.5 835.5,563.167 838.5,563.5C 838.22,560.612 839.553,559.112 842.5,559C 844.5,556.667 846.5,554.333 848.5,552C 851.848,550.212 855.182,548.546 858.5,547C 859.337,545.989 859.67,544.822 859.5,543.5C 862.864,544.211 865.197,543.044 866.5,540C 869.825,540.225 872.158,538.892 873.5,536C 875.833,535.667 878.167,535.333 880.5,535C 880.833,534 881.167,533 881.5,532C 884.5,531.667 887.5,531.333 890.5,531C 891.167,530 891.833,529 892.5,528C 896.356,527.823 900.023,527.323 903.5,526.5 Z M 926.5,1037.5 C 938.505,1037.33 950.505,1037.5 962.5,1038C 963.938,1038.22 965.271,1038.72 966.5,1039.5C 966.291,1040.09 965.957,1040.59 965.5,1041C 970.833,1041.33 976.167,1041.67 981.5,1042C 983.886,1042.28 984.552,1043.28 983.5,1045C 987.167,1045.33 990.833,1045.67 994.5,1046C 996.481,1046.61 996.815,1047.61 995.5,1049C 998.5,1049.33 1001.5,1049.67 1004.5,1050C 1005.34,1051.01 1005.67,1052.18 1005.5,1053.5C 1007.86,1053.34 1010.19,1053.5 1012.5,1054C 1013.34,1055.01 1013.67,1056.18 1013.5,1057.5C 1015.59,1057.32 1017.59,1057.65 1019.5,1058.5C 1020.39,1059.32 1020.72,1060.32 1020.5,1061.5C 1024.24,1060.6 1026.24,1061.93 1026.5,1065.5C 1029.92,1066.86 1033.25,1068.36 1036.5,1070C 1037.34,1071.01 1037.67,1072.18 1037.5,1073.5C 1038.83,1073.5 1040.17,1073.5 1041.5,1073.5C 1041.5,1074.83 1041.5,1076.17 1041.5,1077.5C 1042.83,1077.5 1044.17,1077.5 1045.5,1077.5C 1045.34,1078.87 1045.51,1080.21 1046,1081.5C 1047.83,1080.16 1048.99,1080.66 1049.5,1083C 1049.48,1085.32 1049.48,1087.65 1049.5,1090C 1046.37,1091.57 1043.03,1091.9 1039.5,1091C 1038.66,1089.99 1038.33,1088.82 1038.5,1087.5C 1035.5,1087.83 1034.17,1086.5 1034.5,1083.5C 1033.17,1083.5 1031.83,1083.5 1030.5,1083.5C 1030.5,1082.5 1030.5,1081.5 1030.5,1080.5C 1028.32,1080.72 1026.65,1079.88 1025.5,1078C 1025.83,1077.67 1026.17,1077.33 1026.5,1077C 1024.22,1076.53 1022.22,1075.53 1020.5,1074C 1020.83,1073.67 1021.17,1073.33 1021.5,1073C 1019.26,1072.02 1016.93,1071.52 1014.5,1071.5C 1014.5,1070.5 1014.5,1069.5 1014.5,1068.5C 1012.15,1068.16 1009.81,1067.66 1007.5,1067C 1006.17,1066.33 1006.17,1065.67 1007.5,1065C 1004.9,1064.08 1002.23,1063.41 999.5,1063C 998.167,1062.33 998.167,1061.67 999.5,1061C 996.247,1059.96 992.914,1059.3 989.5,1059C 988.167,1058.33 988.167,1057.67 989.5,1057C 984.877,1056.04 980.21,1055.38 975.5,1055C 974.366,1053.98 974.699,1053.32 976.5,1053C 954.833,1051 933.167,1051 911.5,1053C 913.301,1053.32 913.634,1053.98 912.5,1055C 907.79,1055.38 903.123,1056.04 898.5,1057C 899.833,1057.67 899.833,1058.33 898.5,1059C 895.123,1059.45 891.789,1060.12 888.5,1061C 889.833,1061.67 889.833,1062.33 888.5,1063C 885.883,1063.82 883.216,1064.32 880.5,1064.5C 880.5,1065.5 880.5,1066.5 880.5,1067.5C 878.146,1067.84 875.813,1068.34 873.5,1069C 873.957,1069.41 874.291,1069.91 874.5,1070.5C 870.072,1071.91 866.072,1073.91 862.5,1076.5C 862.5,1077.5 862.5,1078.5 862.5,1079.5C 859.05,1078.76 857.384,1080.09 857.5,1083.5C 853.379,1084.49 850.379,1086.99 848.5,1091C 845.518,1091.5 842.518,1091.66 839.5,1091.5C 839.335,1088.15 839.502,1084.82 840,1081.5C 841.011,1080.66 842.178,1080.33 843.5,1080.5C 844.833,1078.17 846.167,1075.83 847.5,1073.5C 848.833,1073.5 850.167,1073.5 851.5,1073.5C 851.5,1072.17 851.5,1070.83 851.5,1069.5C 854.95,1070.24 856.616,1068.91 856.5,1065.5C 859.864,1066.21 862.197,1065.04 863.5,1062C 864.793,1061.51 866.127,1061.34 867.5,1061.5C 867.281,1060.32 867.614,1059.32 868.5,1058.5C 870.409,1057.65 872.409,1057.32 874.5,1057.5C 874.33,1056.18 874.663,1055.01 875.5,1054C 877.81,1053.5 880.143,1053.34 882.5,1053.5C 882.33,1052.18 882.663,1051.01 883.5,1050C 886.5,1049.67 889.5,1049.33 892.5,1049C 891.007,1047.84 891.174,1047.01 893,1046.5C 896.794,1045.77 900.627,1045.27 904.5,1045C 904.043,1044.59 903.709,1044.09 903.5,1043.5C 904.729,1042.72 906.062,1042.22 907.5,1042C 912.833,1041.67 918.167,1041.33 923.5,1041C 922.692,1040.69 922.025,1040.19 921.5,1039.5C 923.291,1038.83 924.958,1038.16 926.5,1037.5 Z M 866.5,1121.5 C 864.787,1120.36 864.12,1118.7 864.5,1116.5C 865.5,1116.5 866.5,1116.5 867.5,1116.5C 867.351,1115.45 867.517,1114.45 868,1113.5C 870.833,1110.67 873.667,1107.83 876.5,1105C 877.448,1104.52 878.448,1104.35 879.5,1104.5C 879.5,1103.5 879.5,1102.5 879.5,1101.5C 880.833,1101.5 882.167,1101.5 883.5,1101.5C 883.33,1100.18 883.663,1099.01 884.5,1098C 886.433,1097.75 888.266,1097.25 890,1096.5C 890.483,1095.55 890.649,1094.55 890.5,1093.5C 894.169,1094.3 896.836,1093.14 898.5,1090C 900.833,1089.67 903.167,1089.33 905.5,1089C 905.833,1088 906.167,1087 906.5,1086C 910.152,1085.5 913.818,1085.33 917.5,1085.5C 917.33,1084.18 917.663,1083.01 918.5,1082C 935.5,1081.33 952.5,1081.33 969.5,1082C 970.337,1083.01 970.67,1084.18 970.5,1085.5C 974.182,1085.33 977.848,1085.5 981.5,1086C 982.337,1087.01 982.67,1088.18 982.5,1089.5C 985.167,1089.5 987.833,1089.5 990.5,1089.5C 990.351,1090.55 990.517,1091.55 991,1092.5C 993.069,1093.26 995.236,1093.76 997.5,1094C 998.337,1095.01 998.67,1096.18 998.5,1097.5C 1002.17,1098.83 1005.83,1100.17 1009.5,1101.5C 1010.83,1103.83 1012.17,1106.17 1013.5,1108.5C 1016.5,1108.17 1017.83,1109.5 1017.5,1112.5C 1018.82,1112.33 1019.99,1112.66 1021,1113.5C 1021.5,1116.82 1021.67,1120.15 1021.5,1123.5C 1018.17,1123.5 1014.83,1123.5 1011.5,1123.5C 1011.51,1121.69 1011.01,1120.02 1010,1118.5C 1009.67,1118.83 1009.33,1119.17 1009,1119.5C 1008.07,1116.9 1006.23,1115.4 1003.5,1115C 1003.17,1114 1002.83,1113 1002.5,1112C 1001.21,1111.51 999.873,1111.34 998.5,1111.5C 998.567,1108.23 996.901,1106.73 993.5,1107C 991.836,1103.86 989.169,1102.7 985.5,1103.5C 985.67,1102.18 985.337,1101.01 984.5,1100C 981.833,1099.67 979.167,1099.33 976.5,1099C 975.833,1098 975.167,1097 974.5,1096C 969.386,1095.89 964.386,1095.22 959.5,1094C 961.878,1093.03 961.544,1092.36 958.5,1092C 947.76,1091.07 937.093,1091.4 926.5,1093C 929.167,1093.67 929.167,1094.33 926.5,1095C 922.167,1095.33 917.833,1095.67 913.5,1096C 912.833,1097 912.167,1098 911.5,1099C 908.377,1099.21 905.377,1099.87 902.5,1101C 903.833,1101.67 903.833,1102.33 902.5,1103C 898.863,1102.68 896.196,1104.02 894.5,1107C 893.207,1107.49 891.873,1107.66 890.5,1107.5C 890.567,1110.77 888.901,1112.27 885.5,1112C 881.675,1114.99 878.341,1118.49 875.5,1122.5C 874.061,1123.06 872.561,1123.4 871,1123.5C 868.992,1123.69 867.492,1123.03 866.5,1121.5 Z M 932.5,1121.5 C 940.528,1121.17 948.528,1121.5 956.5,1122.5C 955.45,1124.1 956.117,1124.94 958.5,1125C 961.833,1125.33 965.167,1125.67 968.5,1126C 969.833,1126.67 969.833,1127.33 968.5,1128C 970.715,1129.04 973.048,1129.71 975.5,1130C 976.833,1130.67 976.833,1131.33 975.5,1132C 977.392,1132.97 979.392,1133.64 981.5,1134C 982.833,1134.67 982.833,1135.33 981.5,1136C 984.452,1137.19 987.119,1138.69 989.5,1140.5C 989.5,1141.83 989.5,1143.17 989.5,1144.5C 990.833,1144.5 992.167,1144.5 993.5,1144.5C 993.5,1146.17 993.5,1147.83 993.5,1149.5C 994.5,1149.5 995.5,1149.5 996.5,1149.5C 996.015,1153.48 993.681,1155.65 989.5,1156C 990.711,1156.89 990.711,1157.73 989.5,1158.5C 988.614,1157.68 988.281,1156.68 988.5,1155.5C 986.833,1155.5 985.167,1155.5 983.5,1155.5C 983.657,1154.13 983.49,1152.79 983,1151.5C 981.167,1150.33 979.667,1148.83 978.5,1147C 977.552,1146.52 976.552,1146.35 975.5,1146.5C 975.5,1145.5 975.5,1144.5 975.5,1143.5C 972.05,1144.24 970.384,1142.91 970.5,1139.5C 967.351,1139.79 964.351,1139.29 961.5,1138C 961.957,1137.59 962.291,1137.09 962.5,1136.5C 950.518,1135.5 938.518,1135.17 926.5,1135.5C 926.719,1136.68 926.386,1137.68 925.5,1138.5C 923.224,1139.21 920.891,1139.71 918.5,1140C 917.167,1140.67 917.167,1141.33 918.5,1142C 916.608,1142.97 914.608,1143.64 912.5,1144C 908.604,1147.18 905.271,1150.85 902.5,1155C 899.167,1155.67 895.833,1155.67 892.5,1155C 890.527,1151.24 891.527,1149.08 895.5,1148.5C 895.343,1147.13 895.51,1145.79 896,1144.5C 897.999,1142.75 900.165,1141.41 902.5,1140.5C 902.167,1137.5 903.5,1136.17 906.5,1136.5C 906.746,1133.53 908.412,1132.2 911.5,1132.5C 911.5,1131.5 911.5,1130.5 911.5,1129.5C 914.32,1129.75 916.986,1129.25 919.5,1128C 918.167,1127.33 918.167,1126.67 919.5,1126C 923.918,1125.79 928.251,1125.13 932.5,1124C 931.402,1123.23 931.402,1122.4 932.5,1121.5 Z M 897.5,1156.5 C 899.337,1156.64 899.67,1157.31 898.5,1158.5C 897.702,1158.04 897.369,1157.38 897.5,1156.5 Z M 935.5,1164.5 C 941.176,1164.33 946.843,1164.5 952.5,1165C 953.973,1165.71 954.64,1166.88 954.5,1168.5C 955.552,1168.35 956.552,1168.52 957.5,1169C 960.806,1171.23 962.306,1174.39 962,1178.5C 962.667,1179.83 963.333,1179.83 964,1178.5C 966.56,1182.96 965.894,1186.62 962,1189.5C 961.667,1191.5 961.333,1193.5 961,1195.5C 960.333,1196.83 959.667,1196.83 959,1195.5C 958.644,1198.73 956.81,1200.23 953.5,1200C 953.957,1200.41 954.291,1200.91 954.5,1201.5C 947.866,1202.5 941.2,1202.83 934.5,1202.5C 934.5,1201.5 934.5,1200.5 934.5,1199.5C 930.036,1198.7 927.703,1196.04 927.5,1191.5C 926.178,1191.67 925.011,1191.34 924,1190.5C 923.333,1186.17 923.333,1181.83 924,1177.5C 925.011,1176.66 926.178,1176.33 927.5,1176.5C 927.427,1171.74 929.761,1168.9 934.5,1168C 934.167,1167.67 933.833,1167.33 933.5,1167C 934.381,1166.29 935.047,1165.46 935.5,1164.5 Z"/></g>
<g><path style="opacity:0.658" fill="#fefffe" d="M 1162.5,666.5 C 1173.84,666.333 1185.17,666.5 1196.5,667C 1199.27,667.813 1200.93,669.646 1201.5,672.5C 1200.68,673.386 1199.68,673.719 1198.5,673.5C 1197.84,678.473 1197.5,683.473 1197.5,688.5C 1195.88,688.36 1194.71,689.027 1194,690.5C 1193.67,694.5 1193.33,698.5 1193,702.5C 1192.11,701.289 1191.27,701.289 1190.5,702.5C 1189.73,706.445 1189.23,710.445 1189,714.5C 1187.28,713.448 1186.28,714.114 1186,716.5C 1185.5,719.817 1185.33,723.15 1185.5,726.5C 1187.88,726.784 1190.04,726.784 1192,726.5C 1192.33,723.167 1192.67,719.833 1193,716.5C 1193.31,717.308 1193.81,717.975 1194.5,718.5C 1195.5,713.866 1196.33,709.2 1197,704.5C 1197.41,704.957 1197.91,705.291 1198.5,705.5C 1199.5,703.5 1200.5,701.5 1201.5,699.5C 1203.77,698.625 1204.77,696.958 1204.5,694.5C 1205.83,694.5 1207.17,694.5 1208.5,694.5C 1208.33,693.178 1208.66,692.011 1209.5,691C 1214.68,690.946 1219.68,690.279 1224.5,689C 1223.36,682.248 1223.19,675.414 1224,668.5C 1224.5,668 1225,667.5 1225.5,667C 1233.41,666.186 1241.25,666.353 1249,667.5C 1249.17,680.846 1249.67,694.179 1250.5,707.5C 1251.27,705.187 1251.94,702.854 1252.5,700.5C 1254.64,699.262 1255.97,697.429 1256.5,695C 1257.45,694.517 1258.45,694.351 1259.5,694.5C 1259.43,691.234 1261.1,689.734 1264.5,690C 1265.34,688.989 1265.67,687.822 1265.5,686.5C 1272.51,686.334 1279.51,686.5 1286.5,687C 1287.45,689.91 1289.45,691.077 1292.5,690.5C 1292.17,693.5 1293.5,694.833 1296.5,694.5C 1296.2,697.588 1297.53,699.254 1300.5,699.5C 1300.31,701.103 1300.81,702.437 1302,703.5C 1303.25,700.986 1303.75,698.32 1303.5,695.5C 1306.91,695.616 1308.24,693.95 1307.5,690.5C 1310.5,690.833 1311.83,689.5 1311.5,686.5C 1313.2,686.66 1314.87,686.494 1316.5,686C 1316.83,685 1317.17,684 1317.5,683C 1324.5,682.333 1331.5,682.333 1338.5,683C 1339.5,685.761 1341.5,687.094 1344.5,687C 1344.83,688 1345.17,689 1345.5,690C 1346.45,690.483 1347.45,690.649 1348.5,690.5C 1348.17,693.5 1349.5,694.833 1352.5,694.5C 1352.28,695.675 1352.61,696.675 1353.5,697.5C 1355.03,694.346 1355.69,691.013 1355.5,687.5C 1358.39,687.78 1359.89,686.447 1360,683.5C 1362.69,683.047 1364.53,681.547 1365.5,679C 1371.5,678.333 1377.5,678.333 1383.5,679C 1384.48,687.081 1384.82,695.248 1384.5,703.5C 1382.52,703.383 1380.85,704.05 1379.5,705.5C 1380.64,714.785 1380.81,724.119 1380,733.5C 1377.78,735.054 1375.28,736.054 1372.5,736.5C 1371.61,737.325 1371.28,738.325 1371.5,739.5C 1365.83,740.075 1360.17,740.242 1354.5,740C 1352.5,738.577 1351,736.744 1350,734.5C 1349.03,736.392 1348.36,738.392 1348,740.5C 1345.82,742.348 1343.99,744.515 1342.5,747C 1340.83,747.333 1339.17,747.667 1337.5,748C 1336.66,749.011 1336.33,750.178 1336.5,751.5C 1328.17,751.5 1319.83,751.5 1311.5,751.5C 1311.83,748.5 1310.5,747.167 1307.5,747.5C 1307.83,744.5 1306.5,743.167 1303.5,743.5C 1303.82,741.25 1303.32,739.25 1302,737.5C 1301.7,740.914 1301.04,744.247 1300,747.5C 1298.85,746.542 1297.85,746.875 1297,748.5C 1295.26,754.705 1290.76,758.705 1283.5,760.5C 1282.61,761.325 1282.28,762.325 1282.5,763.5C 1277.17,763.5 1271.83,763.5 1266.5,763.5C 1266.72,762.325 1266.39,761.325 1265.5,760.5C 1263.59,759.652 1261.59,759.318 1259.5,759.5C 1259.5,758.167 1259.5,756.833 1259.5,755.5C 1256.61,755.78 1255.11,754.447 1255,751.5C 1254,751.167 1253,750.833 1252,750.5C 1251.82,747.774 1251.32,745.107 1250.5,742.5C 1249.07,747.241 1247.24,751.241 1245,754.5C 1243.99,755.337 1242.82,755.67 1241.5,755.5C 1241.5,756.833 1241.5,758.167 1241.5,759.5C 1238.05,758.756 1236.38,760.09 1236.5,763.5C 1233.81,763.336 1231.15,763.503 1228.5,764C 1226.89,765.122 1225.23,766.288 1223.5,767.5C 1221.08,767.771 1220.41,767.105 1221.5,765.5C 1217.66,764.018 1213.66,763.185 1209.5,763C 1208.66,761.989 1208.33,760.822 1208.5,759.5C 1207.17,759.5 1205.83,759.5 1204.5,759.5C 1204.88,757.335 1204.22,755.668 1202.5,754.5C 1202,757.593 1201,760.426 1199.5,763C 1193.8,763.83 1188.14,763.663 1182.5,762.5C 1182.71,761.914 1183.04,761.414 1183.5,761C 1175.22,759.836 1166.88,759.169 1158.5,759C 1159.55,757.284 1158.89,756.284 1156.5,756C 1152.83,755.667 1149.17,755.333 1145.5,755C 1144.66,753.989 1144.33,752.822 1144.5,751.5C 1138.82,751.666 1133.16,751.499 1127.5,751C 1128.99,749.844 1128.83,749.01 1127,748.5C 1123.87,747.796 1120.71,747.296 1117.5,747C 1118.46,745.853 1118.12,744.853 1116.5,744C 1115.21,743.51 1113.87,743.343 1112.5,743.5C 1112.5,742.167 1112.5,740.833 1112.5,739.5C 1111.17,739.5 1109.83,739.5 1108.5,739.5C 1108.66,738.127 1108.49,736.793 1108,735.5C 1107,735.167 1106,734.833 1105,734.5C 1104.67,731.5 1104.33,728.5 1104,725.5C 1103.33,724.167 1102.67,724.167 1102,725.5C 1100.43,712.214 1100.1,698.881 1101,685.5C 1101.42,683.709 1102.42,682.376 1104,681.5C 1104.33,679.833 1104.67,678.167 1105,676.5C 1108.42,675.342 1110.58,673.508 1111.5,671C 1126.85,670.764 1142.19,670.097 1157.5,669C 1154.5,668.667 1151.5,668.333 1148.5,668C 1153.35,667.826 1158.02,667.326 1162.5,666.5 Z M 1145.5,700.5 C 1150.5,700.5 1155.5,700.5 1160.5,700.5C 1160.9,703.482 1160.23,706.149 1158.5,708.5C 1157.91,708.291 1157.41,707.957 1157,707.5C 1156.67,711.167 1156.33,714.833 1156,718.5C 1154.99,719.337 1153.82,719.67 1152.5,719.5C 1152.67,722.85 1152.5,726.183 1152,729.5C 1151.29,730.973 1150.12,731.64 1148.5,731.5C 1148.92,735.703 1148.42,739.703 1147,743.5C 1145.51,729.156 1145.01,714.822 1145.5,700.5 Z M 1325.5,715.5 C 1326.69,715.97 1327.36,716.97 1327.5,718.5C 1327.17,719.5 1326.83,720.5 1326.5,721.5C 1324.83,719.579 1324.5,717.579 1325.5,715.5 Z M 1274.5,720.5 C 1275.29,720.783 1275.96,721.283 1276.5,722C 1276.74,724.394 1276.24,726.894 1275,729.5C 1273.28,726.546 1273.11,723.546 1274.5,720.5 Z M 1221.5,723.5 C 1223,723.415 1224,724.081 1224.5,725.5C 1224.48,727.63 1223.98,729.63 1223,731.5C 1221.63,729.063 1221.13,726.397 1221.5,723.5 Z"/></g>
<g><path style="opacity:0.879" fill="#fefffe" d="M 922.5,702.5 C 939.833,702.5 957.167,702.5 974.5,702.5C 974.36,704.124 975.027,705.29 976.5,706C 980.152,706.499 983.818,706.665 987.5,706.5C 987.36,708.124 988.027,709.29 989.5,710C 992.482,710.498 995.482,710.665 998.5,710.5C 998.36,712.124 999.027,713.29 1000.5,714C 1003.48,714.498 1006.48,714.665 1009.5,714.5C 1009.33,715.822 1009.66,716.989 1010.5,718C 1013.83,718.333 1017.17,718.667 1020.5,719C 1019.29,719.893 1019.29,720.726 1020.5,721.5C 1023.78,722.254 1027.11,722.754 1030.5,723C 1029.19,724.395 1029.52,725.395 1031.5,726C 1034.48,726.498 1037.48,726.665 1040.5,726.5C 1040.28,727.675 1040.61,728.675 1041.5,729.5C 1044.44,730.244 1047.44,730.744 1050.5,731C 1049.19,732.395 1049.52,733.395 1051.5,734C 1054.5,734.333 1057.5,734.667 1060.5,735C 1059.01,736.156 1059.17,736.99 1061,737.5C 1064.13,738.204 1067.29,738.704 1070.5,739C 1069.01,740.156 1069.17,740.99 1071,741.5C 1074.46,742.218 1077.96,742.718 1081.5,743C 1080.45,744.716 1081.11,745.716 1083.5,746C 1086.83,746.333 1090.17,746.667 1093.5,747C 1092.45,748.716 1093.11,749.716 1095.5,750C 1099.17,750.333 1102.83,750.667 1106.5,751C 1105.17,751.667 1105.17,752.333 1106.5,753C 1111.77,754.106 1117.1,754.773 1122.5,755C 1120.7,755.317 1120.37,755.984 1121.5,757C 1127.83,757.733 1134.16,758.399 1140.5,759C 1139.69,759.308 1139.03,759.808 1138.5,760.5C 1146.48,761.475 1154.48,762.308 1162.5,763C 1162.04,763.414 1161.71,763.914 1161.5,764.5C 1174.15,765.539 1186.82,766.372 1199.5,767C 1198.5,767.333 1197.5,767.667 1196.5,768C 1196.83,768.333 1197.17,768.667 1197.5,769C 1218.17,769.833 1238.84,769.666 1259.5,768.5C 1258.97,767.808 1258.31,767.308 1257.5,767C 1269.21,766.665 1280.87,765.831 1292.5,764.5C 1292.29,763.914 1291.96,763.414 1291.5,763C 1299.18,762.261 1306.85,761.428 1314.5,760.5C 1314.29,759.914 1313.96,759.414 1313.5,759C 1320.02,758.577 1326.35,757.577 1332.5,756C 1331.83,755.667 1331.17,755.333 1330.5,755C 1334.5,754.667 1338.5,754.333 1342.5,754C 1344.89,753.716 1345.55,752.716 1344.5,751C 1348.17,750.667 1351.83,750.333 1355.5,750C 1356.97,749.29 1357.64,748.124 1357.5,746.5C 1361.72,746.922 1365.72,746.255 1369.5,744.5C 1369.29,743.914 1368.96,743.414 1368.5,743C 1372.04,742.718 1375.54,742.218 1379,741.5C 1380.83,740.99 1380.99,740.156 1379.5,739C 1383.19,738.58 1386.86,738.08 1390.5,737.5C 1390.5,736.5 1390.5,735.5 1390.5,734.5C 1393.19,734.664 1395.85,734.497 1398.5,734C 1400.48,733.395 1400.81,732.395 1399.5,731C 1403.37,730.895 1407.04,730.062 1410.5,728.5C 1410.29,727.914 1409.96,727.414 1409.5,727C 1410.79,726.51 1412.13,726.343 1413.5,726.5C 1413.67,746.169 1413.5,765.836 1413,785.5C 1413.27,788.901 1411.77,790.567 1408.5,790.5C 1409.21,793.864 1408.04,796.197 1405,797.5C 1404.85,800.525 1403.35,802.191 1400.5,802.5C 1400.72,805.114 1399.56,806.781 1397,807.5C 1396.89,810.447 1395.39,811.78 1392.5,811.5C 1392.83,814.5 1391.5,815.833 1388.5,815.5C 1388.83,818.5 1387.5,819.833 1384.5,819.5C 1384.5,820.5 1384.5,821.5 1384.5,822.5C 1382.32,822.284 1380.65,823.117 1379.5,825C 1379.83,825.333 1380.17,825.667 1380.5,826C 1377.58,826.292 1375.58,827.792 1374.5,830.5C 1372.88,831.154 1371.22,831.654 1369.5,832C 1369.1,834.749 1367.1,835.916 1363.5,835.5C 1363.72,836.675 1363.39,837.675 1362.5,838.5C 1360.56,839.189 1358.56,839.689 1356.5,840C 1355.17,840.667 1355.17,841.333 1356.5,842C 1353.65,843.289 1350.65,843.789 1347.5,843.5C 1347.64,845.124 1346.97,846.29 1345.5,847C 1342.83,847.333 1340.17,847.667 1337.5,848C 1336.17,848.667 1336.17,849.333 1337.5,850C 1332.92,851.145 1328.25,851.811 1323.5,852C 1322.17,852.667 1322.17,853.333 1323.5,854C 1313.22,855.204 1302.88,855.87 1292.5,856C 1291.5,856.333 1290.5,856.667 1289.5,857C 1291.17,857.333 1292.83,857.667 1294.5,858C 1287.17,858.667 1279.83,858.667 1272.5,858C 1274.17,857.667 1275.83,857.333 1277.5,857C 1276.83,856.667 1276.17,856.333 1275.5,856C 1261.46,855.866 1247.46,855.199 1233.5,854C 1233.96,853.586 1234.29,853.086 1234.5,852.5C 1225.47,851.848 1216.47,851.014 1207.5,850C 1209.3,849.683 1209.63,849.016 1208.5,848C 1201.77,847.83 1195.1,847.163 1188.5,846C 1188.96,845.586 1189.29,845.086 1189.5,844.5C 1183.79,843.855 1178.12,843.022 1172.5,842C 1173.83,841.333 1173.83,840.667 1172.5,840C 1167.42,839.827 1162.42,839.161 1157.5,838C 1158.83,837.333 1158.83,836.667 1157.5,836C 1153.05,835.87 1148.72,835.204 1144.5,834C 1144.96,833.586 1145.29,833.086 1145.5,832.5C 1141.09,831.875 1136.76,831.042 1132.5,830C 1133.83,829.333 1133.83,828.667 1132.5,828C 1129.5,827.667 1126.5,827.333 1123.5,827C 1122.03,826.29 1121.36,825.124 1121.5,823.5C 1117.69,823.837 1114.03,823.337 1110.5,822C 1111.83,821.333 1111.83,820.667 1110.5,820C 1106.71,819.84 1103.05,819.174 1099.5,818C 1100.83,817.333 1100.83,816.667 1099.5,816C 1095.17,815.667 1090.83,815.333 1086.5,815C 1086.17,814 1085.83,813 1085.5,812C 1077.83,811.667 1070.17,811.333 1062.5,811C 1059.46,810.641 1059.12,809.974 1061.5,809C 1051.89,807.443 1042.23,807.109 1032.5,808C 1031.17,809 1029.83,810 1028.5,811C 1025.57,811.777 1022.74,811.61 1020,810.5C 1018.85,813.711 1018.18,817.044 1018,820.5C 1017.59,820.043 1017.09,819.709 1016.5,819.5C 1015.36,822.062 1014.53,824.728 1014,827.5C 1012.66,826.098 1011.82,826.431 1011.5,828.5C 1010.95,830.135 1010.62,831.801 1010.5,833.5C 1007.53,833.746 1006.2,835.412 1006.5,838.5C 1003.5,838.167 1002.17,839.5 1002.5,842.5C 999.537,842.953 997.204,844.453 995.5,847C 994.207,847.49 992.873,847.657 991.5,847.5C 991.5,848.5 991.5,849.5 991.5,850.5C 989.5,850.833 987.5,851.167 985.5,851.5C 985.5,852.5 985.5,853.5 985.5,854.5C 982.513,854.998 979.513,855.498 976.5,856C 975.167,856.667 975.167,857.333 976.5,858C 971.231,859.106 965.897,859.773 960.5,860C 959.366,861.016 959.699,861.683 961.5,862C 951.164,863.945 940.83,863.945 930.5,862C 932.301,861.683 932.634,861.016 931.5,860C 926.118,859.693 920.785,859.026 915.5,858C 915.957,857.586 916.291,857.086 916.5,856.5C 913.562,855.511 910.562,854.844 907.5,854.5C 907.5,853.5 907.5,852.5 907.5,851.5C 904.78,851.369 902.113,850.869 899.5,850C 900.833,849.333 900.833,848.667 899.5,848C 897.975,846.991 896.308,846.491 894.5,846.5C 894.833,843.5 893.5,842.167 890.5,842.5C 890.5,841.5 890.5,840.5 890.5,839.5C 889.167,839.5 887.833,839.5 886.5,839.5C 886.762,838.022 886.429,836.689 885.5,835.5C 884.575,834.359 883.741,834.359 883,835.5C 883.266,832.099 881.766,830.433 878.5,830.5C 878.61,827.941 877.944,825.608 876.5,823.5C 875.914,823.709 875.414,824.043 875,824.5C 874.802,821.298 873.969,818.298 872.5,815.5C 871.914,815.709 871.414,816.043 871,816.5C 870.886,811.676 870.053,807.01 868.5,802.5C 867.914,802.709 867.414,803.043 867,803.5C 866.333,790.833 866.333,778.167 867,765.5C 867.333,765.833 867.667,766.167 868,766.5C 870.173,762.49 871.006,758.157 870.5,753.5C 871.5,753.5 872.5,753.5 873.5,753.5C 873.998,750.513 874.498,747.513 875,744.5C 876.156,745.993 876.99,745.826 877.5,744C 878.233,742.234 878.567,740.401 878.5,738.5C 879.552,738.649 880.552,738.483 881.5,738C 882.568,733.966 884.568,730.466 887.5,727.5C 889.526,726.63 890.859,725.13 891.5,723C 892.448,722.517 893.448,722.351 894.5,722.5C 894.406,719.459 895.906,717.793 899,717.5C 899.483,716.552 899.649,715.552 899.5,714.5C 901.989,714.702 904.323,714.202 906.5,713C 905.167,712.333 905.167,711.667 906.5,711C 908.167,710.667 909.833,710.333 911.5,710C 912.337,708.989 912.67,707.822 912.5,706.5C 916.308,706.837 919.974,706.337 923.5,705C 922.748,704.329 922.414,703.496 922.5,702.5 Z"/></g>
</svg>
